<mxfile host="65bd71144e">
    <diagram id="76nVDwhcdYPv3L1FuHO6" name="Descrição do projeto">
        <mxGraphModel dx="2391" dy="567" grid="1" gridSize="10" guides="1" tooltips="1" connect="1" arrows="1" fold="1" page="1" pageScale="1" pageWidth="827" pageHeight="1169" math="0" shadow="0">
            <root>
                <mxCell id="0"/>
                <mxCell id="1" parent="0"/>
                <mxCell id="11" style="edgeStyle=none;html=1;shadow=1;fontSize=24;strokeColor=#35E028;fillColor=#00FF00;startArrow=none;" parent="1" source="13" edge="1">
                    <mxGeometry relative="1" as="geometry">
                        <mxPoint x="-20" y="150" as="targetPoint"/>
                        <Array as="points"/>
                    </mxGeometry>
                </mxCell>
                <mxCell id="27" style="edgeStyle=orthogonalEdgeStyle;html=1;shadow=1;fontSize=24;strokeColor=#35E028;fillColor=#00FF00;startArrow=none;entryX=-0.001;entryY=0.854;entryDx=0;entryDy=0;entryPerimeter=0;" parent="1" source="28" target="8" edge="1">
                    <mxGeometry relative="1" as="geometry">
                        <mxPoint x="-150" y="440" as="sourcePoint"/>
                        <mxPoint x="270" y="390" as="targetPoint"/>
                    </mxGeometry>
                </mxCell>
                <mxCell id="2" value="User =&lt;br&gt;admim[1]&lt;br&gt;id:&lt;br&gt;cpf:&lt;br&gt;email:&lt;br&gt;password:&lt;br&gt;role:&lt;br&gt;lista usuarios:[ 0/V ]" style="shape=ext;double=1;rounded=1;whiteSpace=wrap;html=1;fontSize=22;" parent="1" vertex="1">
                    <mxGeometry x="-388" y="209" width="230" height="270" as="geometry"/>
                </mxCell>
                <mxCell id="19" value="" style="edgeStyle=orthogonalEdgeStyle;html=1;shadow=1;fontSize=24;strokeColor=#35E028;fillColor=#00FF00;" parent="1" source="7" target="10" edge="1">
                    <mxGeometry relative="1" as="geometry"/>
                </mxCell>
                <mxCell id="7" value="&lt;font style=&quot;font-size: 24px&quot;&gt;conta=&lt;br&gt;&lt;br&gt;&amp;nbsp;id:&lt;br&gt;ADMIN:[1/0]&lt;br&gt;series:[varios]&lt;br&gt;filmes:[varios]&lt;br&gt;documentarios:[]&lt;br&gt;usuarios:[ 0/varios ]&lt;br&gt;listaUsuarios[0/V]&lt;br&gt;&lt;br&gt;&lt;/font&gt;" style="shape=ext;double=1;rounded=1;whiteSpace=wrap;html=1;container=1;" parent="1" vertex="1">
                    <mxGeometry x="-55" y="35" width="240" height="230" as="geometry"/>
                </mxCell>
                <mxCell id="8" value="Lista usuarios=&lt;br&gt;&lt;br&gt;conta: [1]&lt;br&gt;date:&lt;br&gt;startData:&lt;br&gt;endData:&lt;br&gt;usuarios:[ 0/varios ]" style="shape=ext;double=1;rounded=1;whiteSpace=wrap;html=1;fontSize=20;" parent="1" vertex="1">
                    <mxGeometry x="319" y="260" width="240" height="200" as="geometry"/>
                </mxCell>
                <mxCell id="13" value="&lt;span style=&quot;font-size: 24px&quot;&gt;N:1&lt;/span&gt;" style="text;html=1;align=center;verticalAlign=middle;resizable=0;points=[];autosize=1;strokeColor=none;fillColor=none;" parent="1" vertex="1">
                    <mxGeometry x="-230" y="140" width="50" height="20" as="geometry"/>
                </mxCell>
                <mxCell id="14" value="" style="edgeStyle=none;html=1;shadow=1;fontSize=24;strokeColor=#35E028;fillColor=#00FF00;endArrow=none;" parent="1" source="2" target="13" edge="1">
                    <mxGeometry relative="1" as="geometry">
                        <mxPoint x="-266.7346938775511" y="220" as="sourcePoint"/>
                        <mxPoint x="-20" y="120" as="targetPoint"/>
                        <Array as="points">
                            <mxPoint x="-270" y="150"/>
                        </Array>
                    </mxGeometry>
                </mxCell>
                <mxCell id="10" value="&lt;span style=&quot;font-size: 24px&quot;&gt;N:1&lt;/span&gt;" style="text;html=1;align=center;verticalAlign=middle;resizable=0;points=[];autosize=1;strokeColor=none;fillColor=none;" parent="1" vertex="1">
                    <mxGeometry x="55" y="290" width="50" height="20" as="geometry"/>
                </mxCell>
                <mxCell id="16" value="" style="edgeStyle=orthogonalEdgeStyle;html=1;shadow=1;fontSize=24;strokeColor=#35E028;fillColor=#00FF00;endArrow=none;" parent="1" target="10" edge="1">
                    <mxGeometry relative="1" as="geometry">
                        <mxPoint x="-160" y="450" as="sourcePoint"/>
                        <mxPoint x="-18" y="230" as="targetPoint"/>
                        <Array as="points">
                            <mxPoint x="-160" y="440"/>
                            <mxPoint x="-145" y="440"/>
                            <mxPoint x="-145" y="300"/>
                        </Array>
                    </mxGeometry>
                </mxCell>
                <mxCell id="24" value="" style="edgeStyle=orthogonalEdgeStyle;html=1;shadow=1;fontSize=24;strokeColor=#35E028;fillColor=#00FF00;" parent="1" target="23" edge="1">
                    <mxGeometry relative="1" as="geometry">
                        <mxPoint x="414" y="130" as="sourcePoint"/>
                        <Array as="points">
                            <mxPoint x="350" y="130"/>
                            <mxPoint x="350" y="130"/>
                        </Array>
                    </mxGeometry>
                </mxCell>
                <mxCell id="22" value="" style="edgeStyle=orthogonalEdgeStyle;html=1;shadow=1;fontSize=24;strokeColor=#35E028;fillColor=#00FF00;endArrow=none;" parent="1" source="7" edge="1">
                    <mxGeometry relative="1" as="geometry">
                        <mxPoint x="222" y="80" as="sourcePoint"/>
                        <mxPoint x="364" y="130" as="targetPoint"/>
                        <Array as="points"/>
                    </mxGeometry>
                </mxCell>
                <mxCell id="26" value="" style="edgeStyle=orthogonalEdgeStyle;html=1;shadow=1;fontSize=24;strokeColor=#35E028;fillColor=#00FF00;entryX=1;entryY=0.177;entryDx=0;entryDy=0;entryPerimeter=0;" parent="1" source="23" target="8" edge="1">
                    <mxGeometry relative="1" as="geometry">
                        <mxPoint x="609" y="130" as="targetPoint"/>
                    </mxGeometry>
                </mxCell>
                <mxCell id="23" value="&lt;span style=&quot;font-size: 24px&quot;&gt;1:N&lt;/span&gt;" style="text;html=1;align=center;verticalAlign=middle;resizable=0;points=[];autosize=1;strokeColor=none;fillColor=none;fontSize=24;" parent="1" vertex="1">
                    <mxGeometry x="414" y="155" width="50" height="30" as="geometry"/>
                </mxCell>
                <mxCell id="28" value="&lt;span style=&quot;font-size: 24px&quot;&gt;N:N&lt;/span&gt;" style="text;html=1;align=center;verticalAlign=middle;resizable=0;points=[];autosize=1;strokeColor=none;fillColor=none;" parent="1" vertex="1">
                    <mxGeometry x="35" y="420" width="60" height="20" as="geometry"/>
                </mxCell>
                <mxCell id="29" value="" style="edgeStyle=orthogonalEdgeStyle;html=1;entryX=0.025;entryY=0.9;entryDx=0;entryDy=0;entryPerimeter=0;shadow=1;fontSize=24;strokeColor=#35E028;fillColor=#00FF00;endArrow=none;" parent="1" target="28" edge="1">
                    <mxGeometry relative="1" as="geometry">
                        <mxPoint x="-150" y="440" as="sourcePoint"/>
                        <mxPoint x="300" y="420" as="targetPoint"/>
                    </mxGeometry>
                </mxCell>
            </root>
        </mxGraphModel>
    </diagram>
    <diagram id="zeVfSFs-IopzzocJ2By9" name="Criar conta">
        <mxGraphModel dx="1173" dy="425" grid="1" gridSize="10" guides="1" tooltips="1" connect="1" arrows="1" fold="1" page="1" pageScale="1" pageWidth="827" pageHeight="1169" math="0" shadow="0">
            <root>
                <mxCell id="DbeEzqUfpYpd05Lesax3-0"/>
                <mxCell id="DbeEzqUfpYpd05Lesax3-1" parent="DbeEzqUfpYpd05Lesax3-0"/>
            </root>
        </mxGraphModel>
    </diagram>
    <diagram id="9WWtUxNPAfSXR3Ar9k5m" name="Lista de usuario">
        <mxGraphModel dx="1173" dy="425" grid="1" gridSize="10" guides="1" tooltips="1" connect="1" arrows="1" fold="1" page="1" pageScale="1" pageWidth="827" pageHeight="1169" math="0" shadow="0">
            <root>
                <mxCell id="9P74zBLb69ztyDQQ5SiI-0"/>
                <mxCell id="9P74zBLb69ztyDQQ5SiI-1" parent="9P74zBLb69ztyDQQ5SiI-0"/>
            </root>
        </mxGraphModel>
    </diagram>
</mxfile>